<svg width="30" height="33" viewBox="0 0 30 33" fill="none" xmlns="http://www.w3.org/2000/svg">
<path d="M29.0952 7.61908C29.0952 6.46321 28.599 5.42398 27.8123 4.69758C24.927 1.85428 20.9644 0.100587 16.5905 0.100587C7.76192 0.100587 0.594238 7.25986 0.594238 16.1012C0.594238 24.9334 7.76192 32.1006 16.5905 32.1006C21.0214 32.1006 25.0172 30.3111 27.9105 27.4108C28.6481 26.6897 29.0872 25.6863 29.0872 24.5808C29.0872 22.3711 27.3016 20.575 25.0994 20.575C23.9851 20.575 22.9795 21.0243 22.2578 21.7534C20.8158 23.2009 18.8099 24.0956 16.5905 24.0956C12.1756 24.0956 8.59503 20.5153 8.59503 16.1012C8.59503 11.6832 12.1756 8.09893 16.5905 8.09893C18.8099 8.09893 20.8158 8.99632 22.2578 10.4451V10.4412C22.9795 11.1702 23.9851 11.6209 25.0994 11.6209C27.3016 11.6209 29.0952 9.83407 29.0952 7.61908Z" fill="url(#paint0_linear_309_2)"/>
<circle cx="16.9232" cy="16.1006" r="4.48598" transform="rotate(-180 16.9232 16.1006)" fill="url(#paint1_linear_309_2)"/>
<defs>
<linearGradient id="paint0_linear_309_2" x1="19.8241" y1="21.0202" x2="5.67418" y2="0.996738" gradientUnits="userSpaceOnUse">
<stop offset="0.203125" stop-color="#4299E1"/>
<stop offset="1" stop-color="#BEE3F8"/>
</linearGradient>
<linearGradient id="paint1_linear_309_2" x1="12.4372" y1="10.3884" x2="19.854" y2="26.1492" gradientUnits="userSpaceOnUse">
<stop offset="0.270833" stop-color="#4299E1"/>
<stop offset="0.708333" stop-color="#BEE3F8"/>
</linearGradient>
</defs>
</svg>
